<svg width="2251" height="1247" viewBox="0 0 2251 1247" fill="none" xmlns="http://www.w3.org/2000/svg">
<path fill-rule="evenodd" clip-rule="evenodd" d="M68.0994 29.0594C124.412 -15.9394 206.542 -6.76759 251.54 49.5452L1012.68 1002.05C1032.71 1027.13 1042.01 1057.31 1041.19 1087.06C1043.31 1096.4 1044.43 1106.12 1044.43 1116.11C1044.42 1188.19 985.985 1246.62 913.902 1246.61L166.002 1246.56C93.919 1246.56 35.4877 1188.12 35.4928 1116.04C35.4978 1043.95 93.937 985.521 166.021 985.526L359.607 985.539L74.15 848.48C9.1686 817.28 -18.2168 739.31 12.9833 674.328C44.1833 609.347 122.154 581.962 187.135 613.162L480.228 753.887L47.6137 212.5C2.61489 156.188 11.7866 74.0583 68.0994 29.0594ZM2182.44 29.0594C2126.12 -15.9394 2043.99 -6.76759 1999 49.5452L1237.86 1002.05C1217.82 1027.13 1208.52 1057.33 1209.35 1087.09C1207.23 1096.42 1206.11 1106.13 1206.11 1116.11C1206.12 1188.19 1264.56 1246.62 1336.64 1246.61L2084.54 1246.56C2156.62 1246.56 2215.05 1188.12 2215.05 1116.04C2215.04 1043.95 2156.6 985.521 2084.52 985.526L1890.94 985.539L2176.4 848.48C2241.38 817.28 2268.76 739.31 2237.56 674.328C2206.36 609.347 2128.39 581.962 2063.41 613.162L1770.3 753.894L2202.92 212.5C2247.92 156.188 2238.75 74.0583 2182.44 29.0594Z" fill="url(#paint0_linear_415_254)"/>
<path fill-rule="evenodd" clip-rule="evenodd" d="M68.0994 29.0594C124.412 -15.9394 206.542 -6.76759 251.54 49.5452L1012.68 1002.05C1032.71 1027.13 1042.01 1057.31 1041.19 1087.06C1043.31 1096.4 1044.43 1106.12 1044.43 1116.11C1044.42 1188.19 985.985 1246.62 913.902 1246.61L166.002 1246.56C93.919 1246.56 35.4877 1188.12 35.4928 1116.04C35.4978 1043.95 93.937 985.521 166.021 985.526L359.607 985.539L74.15 848.48C9.1686 817.28 -18.2168 739.31 12.9833 674.328C44.1833 609.347 122.154 581.962 187.135 613.162L480.228 753.887L47.6137 212.5C2.61489 156.188 11.7866 74.0583 68.0994 29.0594ZM2182.44 29.0594C2126.12 -15.9394 2043.99 -6.76759 1999 49.5452L1237.86 1002.05C1217.82 1027.13 1208.52 1057.33 1209.35 1087.09C1207.23 1096.42 1206.11 1106.13 1206.11 1116.11C1206.12 1188.19 1264.56 1246.62 1336.64 1246.61L2084.54 1246.56C2156.62 1246.56 2215.05 1188.12 2215.05 1116.04C2215.04 1043.95 2156.6 985.521 2084.52 985.526L1890.94 985.539L2176.4 848.48C2241.38 817.28 2268.76 739.31 2237.56 674.328C2206.36 609.347 2128.39 581.962 2063.41 613.162L1770.3 753.894L2202.92 212.5C2247.92 156.188 2238.75 74.0583 2182.44 29.0594Z" fill="black" fill-opacity="0.03"/>
<defs>
<linearGradient id="paint0_linear_415_254" x1="12.4805" y1="-8.94812" x2="2237.51" y2="1201.46" gradientUnits="userSpaceOnUse">
<stop stop-color="#CEE0A6"/>
<stop offset="1" stop-color="#A6E0C4"/>
</linearGradient>
</defs>
</svg>
